<svg width="145" height="13" viewBox="0 0 145 13" fill="none" xmlns="http://www.w3.org/2000/svg">
<path d="M2.30398 10.096C3.25198 10.096 4.00798 9.844 4.65598 9.184C4.65598 9.544 4.71598 9.736 4.79998 10H6.28798C6.15598 9.676 6.10798 9.208 6.10798 8.44V5.812C6.10798 4.324 5.51998 3.508 3.81598 3.508C2.49598 3.508 1.42798 4.036 0.743984 4.66L1.46398 5.584C2.00398 5.152 2.72398 4.72 3.61198 4.72C4.31998 4.72 4.65598 4.996 4.65598 5.632V5.824C1.67998 6.16 0.503984 7.084 0.503984 8.464C0.503984 9.52 1.27198 10.096 2.30398 10.096ZM2.84398 8.956C2.30398 8.956 1.95598 8.692 1.95598 8.188C1.95598 7.492 2.89198 7.06 4.65598 6.82V8.224C4.18798 8.668 3.59998 8.956 2.84398 8.956ZM7.75714 10H9.24514V1.12H7.75714V10ZM10.9667 10H12.4427V5.968C12.8627 5.284 13.4627 4.84 14.4107 4.84C14.4947 4.84 14.7347 4.852 14.8067 4.864L14.8547 3.508H14.7587C13.5467 3.508 12.8627 4.036 12.4667 4.672H12.4427V3.628H10.9667V10ZM18.3193 10.132C19.4593 10.132 20.3353 9.712 20.9953 8.98L20.2153 8.212C19.7353 8.68 19.2553 8.956 18.4273 8.956C17.4913 8.956 16.7833 8.452 16.7233 7.3H21.0793V6.952C21.0793 4.36 19.7113 3.508 18.2833 3.508C16.9633 3.508 15.2473 4.396 15.2473 6.82C15.2473 9.16 16.7233 10.132 18.3193 10.132ZM16.7473 6.196C16.8913 5.116 17.5513 4.708 18.2713 4.708C19.1593 4.708 19.6393 5.224 19.7233 6.196H16.7473ZM23.6907 10.096C24.6387 10.096 25.3947 9.844 26.0427 9.184C26.0427 9.544 26.1027 9.736 26.1867 10H27.6747C27.5427 9.676 27.4947 9.208 27.4947 8.44V5.812C27.4947 4.324 26.9067 3.508 25.2027 3.508C23.8827 3.508 22.8147 4.036 22.1307 4.66L22.8507 5.584C23.3907 5.152 24.1107 4.72 24.9987 4.72C25.7067 4.72 26.0427 4.996 26.0427 5.632V5.824C23.0667 6.16 21.8907 7.084 21.8907 8.464C21.8907 9.52 22.6587 10.096 23.6907 10.096ZM24.2307 8.956C23.6907 8.956 23.3427 8.692 23.3427 8.188C23.3427 7.492 24.2787 7.06 26.0427 6.82V8.224C25.5747 8.668 24.9867 8.956 24.2307 8.956ZM31.2559 10.096C32.2039 10.096 32.8159 9.676 33.2839 9.136C33.2839 9.46 33.3439 9.82 33.4279 10H34.9519C34.8079 9.676 34.7599 9.208 34.7599 8.44V1.12H33.2839V4.312C32.8159 3.784 32.1439 3.508 31.4599 3.508C29.8279 3.508 28.7359 4.624 28.7359 6.832C28.7359 9.04 29.8039 10.096 31.2559 10.096ZM31.7359 8.884C30.7879 8.884 30.2119 8.212 30.2119 6.868C30.2119 5.452 30.6679 4.732 31.7839 4.732C32.3119 4.732 32.8879 5.008 33.2839 5.524V8.08C32.9359 8.5 32.3479 8.884 31.7359 8.884ZM37.0918 12.472C38.3518 12.472 38.9038 11.812 39.3238 10.696L42.0358 3.628H40.5718L38.9398 8.272H38.9158L37.2718 3.628H35.7358L38.1838 10.036L38.0038 10.504C37.7998 11.02 37.5238 11.224 36.9958 11.224C36.4798 11.224 36.0958 11.14 35.9158 11.092L35.5798 12.28C35.8918 12.364 36.3358 12.472 37.0918 12.472ZM45.994 10H47.482V5.596C48.022 5.104 48.562 4.768 49.21 4.768C49.858 4.768 50.158 5.092 50.158 5.8V10H51.646V5.428C51.646 4.168 50.926 3.508 49.81 3.508C48.658 3.508 47.89 4.06 47.482 4.492V1.12H45.994V10ZM54.6165 10.096C55.5645 10.096 56.3205 9.844 56.9685 9.184C56.9685 9.544 57.0285 9.736 57.1125 10H58.6005C58.4685 9.676 58.4205 9.208 58.4205 8.44V5.812C58.4205 4.324 57.8325 3.508 56.1285 3.508C54.8085 3.508 53.7405 4.036 53.0565 4.66L53.7765 5.584C54.3165 5.152 55.0365 4.72 55.9245 4.72C56.6325 4.72 56.9685 4.996 56.9685 5.632V5.824C53.9925 6.16 52.8165 7.084 52.8165 8.464C52.8165 9.52 53.5845 10.096 54.6165 10.096ZM55.1565 8.956C54.6165 8.956 54.2685 8.692 54.2685 8.188C54.2685 7.492 55.2045 7.06 56.9685 6.82V8.224C56.5005 8.668 55.9125 8.956 55.1565 8.956ZM61.4765 10.012H62.9765L65.2805 3.628H63.8525L62.3045 8.332H62.2805L60.7205 3.628H59.1725L61.4765 10.012ZM68.6279 10.132C69.7679 10.132 70.6439 9.712 71.3039 8.98L70.5239 8.212C70.0439 8.68 69.5639 8.956 68.7359 8.956C67.7999 8.956 67.0919 8.452 67.0319 7.3H71.3879V6.952C71.3879 4.36 70.0199 3.508 68.5919 3.508C67.2719 3.508 65.5559 4.396 65.5559 6.82C65.5559 9.16 67.0319 10.132 68.6279 10.132ZM67.0559 6.196C67.1999 5.116 67.8599 4.708 68.5799 4.708C69.4679 4.708 69.9479 5.224 70.0319 6.196H67.0559ZM77.093 10.096C78.041 10.096 78.797 9.844 79.445 9.184C79.445 9.544 79.505 9.736 79.589 10H81.077C80.945 9.676 80.897 9.208 80.897 8.44V5.812C80.897 4.324 80.309 3.508 78.605 3.508C77.285 3.508 76.217 4.036 75.533 4.66L76.253 5.584C76.793 5.152 77.513 4.72 78.401 4.72C79.109 4.72 79.445 4.996 79.445 5.632V5.824C76.469 6.16 75.293 7.084 75.293 8.464C75.293 9.52 76.061 10.096 77.093 10.096ZM77.633 8.956C77.093 8.956 76.745 8.692 76.745 8.188C76.745 7.492 77.681 7.06 79.445 6.82V8.224C78.977 8.668 78.389 8.956 77.633 8.956ZM82.4862 10H83.9742V5.596C84.5142 5.104 85.0542 4.768 85.7022 4.768C86.3502 4.768 86.6502 5.092 86.6502 5.8V10H88.1382V5.428C88.1382 4.168 87.4182 3.508 86.3022 3.508C85.1502 3.508 84.3822 4.06 83.9742 4.492V3.628H82.4862V10ZM94.1204 10.096C95.0684 10.096 95.8244 9.844 96.4724 9.184C96.4724 9.544 96.5324 9.736 96.6164 10H98.1044C97.9724 9.676 97.9244 9.208 97.9244 8.44V5.812C97.9244 4.324 97.3364 3.508 95.6324 3.508C94.3124 3.508 93.2444 4.036 92.5604 4.66L93.2804 5.584C93.8204 5.152 94.5404 4.72 95.4284 4.72C96.1364 4.72 96.4724 4.996 96.4724 5.632V5.824C93.4964 6.16 92.3204 7.084 92.3204 8.464C92.3204 9.52 93.0884 10.096 94.1204 10.096ZM94.6604 8.956C94.1204 8.956 93.7724 8.692 93.7724 8.188C93.7724 7.492 94.7084 7.06 96.4724 6.82V8.224C96.0044 8.668 95.4164 8.956 94.6604 8.956ZM102.13 10.132C103.666 10.132 104.422 9.28 104.878 8.26L103.654 7.816C103.306 8.716 102.838 8.92 102.166 8.92C101.194 8.92 100.642 8.176 100.642 6.82C100.642 5.296 101.35 4.744 102.19 4.744C102.898 4.744 103.354 5.092 103.606 5.812L104.854 5.368C104.47 4.384 103.798 3.508 102.214 3.508C100.798 3.508 99.1535 4.384 99.1535 6.82C99.1535 9.148 100.654 10.132 102.13 10.132ZM108.587 10.132C110.123 10.132 110.879 9.28 111.335 8.26L110.111 7.816C109.763 8.716 109.295 8.92 108.623 8.92C107.651 8.92 107.099 8.176 107.099 6.82C107.099 5.296 107.807 4.744 108.647 4.744C109.355 4.744 109.811 5.092 110.063 5.812L111.311 5.368C110.927 4.384 110.255 3.508 108.671 3.508C107.255 3.508 105.611 4.384 105.611 6.82C105.611 9.148 107.111 10.132 108.587 10.132ZM115.176 10.132C116.724 10.132 118.284 9.148 118.284 6.82C118.284 4.468 116.724 3.508 115.176 3.508C113.616 3.508 112.068 4.468 112.068 6.82C112.068 9.148 113.628 10.132 115.176 10.132ZM115.176 8.896C114.048 8.896 113.556 8.032 113.556 6.82C113.556 5.536 114.108 4.768 115.176 4.768C116.292 4.768 116.796 5.632 116.796 6.82C116.796 8.128 116.244 8.896 115.176 8.896ZM121.34 10.12C122.492 10.12 123.26 9.568 123.668 9.136V10H125.156V3.628H123.668V8.056C123.128 8.548 122.588 8.884 121.94 8.884C121.292 8.884 120.992 8.56 120.992 7.852V3.628H119.504V8.2C119.504 9.46 120.224 10.12 121.34 10.12ZM126.807 10H128.295V5.596C128.835 5.104 129.375 4.768 130.023 4.768C130.671 4.768 130.971 5.092 130.971 5.8V10H132.459V5.428C132.459 4.168 131.739 3.508 130.623 3.508C129.471 3.508 128.703 4.06 128.295 4.492V3.628H126.807V10ZM136.509 10.084C136.881 10.084 137.433 10.036 137.589 10V8.836C137.445 8.884 137.169 8.92 136.953 8.92C136.221 8.92 136.017 8.644 136.017 7.96V4.804H137.661V3.628H136.017V1.408H134.541V3.628H133.437V4.804H134.541V8.332C134.541 9.484 134.889 10.084 136.509 10.084ZM140.593 7.372H141.805C141.805 6.124 141.829 5.836 142.885 5.26C143.701 4.816 144.349 4.276 144.349 3.136C144.349 1.864 143.413 0.952 141.625 0.952C140.149 0.952 139.153 1.612 138.457 2.452L139.405 3.304C139.849 2.788 140.605 2.272 141.493 2.272C142.369 2.272 142.873 2.644 142.873 3.244C142.873 3.952 142.513 4.204 141.733 4.66C140.989 5.08 140.557 5.656 140.557 6.532C140.557 6.82 140.557 7.084 140.593 7.372ZM140.377 10H142.021V8.5H140.377V10Z" fill="url(#paint0_linear_169_32547)"/>
<path d="M0.0839844 11.596H144.913V11.836H0.0839844V11.596Z" fill="url(#paint1_linear_169_32547)"/>
<defs>
<linearGradient id="paint0_linear_169_32547" x1="-2.05618e-07" y1="-4.22807" x2="75.7848" y2="80.8995" gradientUnits="userSpaceOnUse">
<stop stop-color="#53E88B"/>
<stop offset="1" stop-color="#15BE77"/>
</linearGradient>
<linearGradient id="paint1_linear_169_32547" x1="-2.05618e-07" y1="-4.22807" x2="75.7848" y2="80.8995" gradientUnits="userSpaceOnUse">
<stop stop-color="#53E88B"/>
<stop offset="1" stop-color="#15BE77"/>
</linearGradient>
</defs>
</svg>
