<svg width="130" height="13" viewBox="0 0 130 13" fill="none" xmlns="http://www.w3.org/2000/svg">
<path d="M1.24433 10H2.74433V6.22H5.70833V4.888H2.74433V2.512H6.83633V1.12H1.24433V10ZM9.84748 10.132C11.3955 10.132 12.9555 9.148 12.9555 6.82C12.9555 4.468 11.3955 3.508 9.84748 3.508C8.28748 3.508 6.73948 4.468 6.73948 6.82C6.73948 9.148 8.29948 10.132 9.84748 10.132ZM9.84748 8.896C8.71948 8.896 8.22748 8.032 8.22748 6.82C8.22748 5.536 8.77948 4.768 9.84748 4.768C10.9635 4.768 11.4675 5.632 11.4675 6.82C11.4675 8.128 10.9155 8.896 9.84748 8.896ZM14.2479 10H15.7239V5.968C16.1439 5.284 16.7439 4.84 17.6919 4.84C17.7759 4.84 18.0159 4.852 18.0879 4.864L18.1359 3.508H18.0399C16.8279 3.508 16.1439 4.036 15.7479 4.672H15.7239V3.628H14.2479V10ZM21.3589 12.472C23.3269 12.472 24.6469 11.836 24.6469 10.528C24.6469 9.412 23.9029 8.908 22.0189 8.788L20.8909 8.716C20.3269 8.668 20.1589 8.584 20.1589 8.332C20.1589 8.164 20.2909 8.032 20.4829 7.924C20.7949 8.008 21.0109 8.056 21.3709 8.056C23.0269 8.056 24.0229 7.12 24.0229 5.788C24.0229 5.452 23.9389 5.152 23.7949 4.924C24.2149 4.792 24.6229 4.756 24.9109 4.756V3.556C24.3829 3.604 23.7349 3.856 23.3269 4.18C22.8949 3.796 22.2469 3.508 21.3709 3.508C19.7029 3.508 18.6949 4.48 18.6949 5.788C18.6949 6.568 19.0549 7.216 19.7029 7.624C19.2229 7.912 18.8389 8.308 18.8389 8.788C18.8389 9.136 19.0069 9.4 19.3309 9.568C18.6829 9.82 18.2869 10.276 18.2869 10.912C18.2869 11.836 19.1629 12.472 21.3589 12.472ZM21.3949 7.036C20.5789 7.036 20.0869 6.616 20.0869 5.836C20.0869 5.056 20.5669 4.612 21.3829 4.612C22.2229 4.612 22.6789 5.044 22.6789 5.836C22.6789 6.616 22.1989 7.036 21.3949 7.036ZM21.5869 11.404C20.2909 11.404 19.6429 11.224 19.6429 10.66C19.6429 10.336 19.8109 10.036 20.2309 9.844C20.3629 9.868 20.4829 9.88 20.6149 9.88L21.7189 9.952C23.0149 10.036 23.3389 10.204 23.3389 10.66C23.3389 11.116 22.6669 11.404 21.5869 11.404ZM28.5155 10.132C30.0635 10.132 31.6235 9.148 31.6235 6.82C31.6235 4.468 30.0635 3.508 28.5155 3.508C26.9555 3.508 25.4075 4.468 25.4075 6.82C25.4075 9.148 26.9675 10.132 28.5155 10.132ZM28.5155 8.896C27.3875 8.896 26.8955 8.032 26.8955 6.82C26.8955 5.536 27.4475 4.768 28.5155 4.768C29.6315 4.768 30.1355 5.632 30.1355 6.82C30.1355 8.128 29.5835 8.896 28.5155 8.896ZM35.3879 10.084C35.7599 10.084 36.3119 10.036 36.4679 10V8.836C36.3239 8.884 36.0479 8.92 35.8319 8.92C35.0999 8.92 34.8959 8.644 34.8959 7.96V4.804H36.5399V3.628H34.8959V1.408H33.4199V3.628H32.3159V4.804H33.4199V8.332C33.4199 9.484 33.7679 10.084 35.3879 10.084ZM42.663 10H44.175V6.172L47.211 1.12H45.651L43.443 4.9L41.223 1.12H39.639L42.663 6.172V10ZM49.2928 10.132C50.8408 10.132 52.4008 9.148 52.4008 6.82C52.4008 4.468 50.8408 3.508 49.2928 3.508C47.7328 3.508 46.1848 4.468 46.1848 6.82C46.1848 9.148 47.7448 10.132 49.2928 10.132ZM49.2928 8.896C48.1648 8.896 47.6728 8.032 47.6728 6.82C47.6728 5.536 48.2248 4.768 49.2928 4.768C50.4088 4.768 50.9128 5.632 50.9128 6.82C50.9128 8.128 50.3608 8.896 49.2928 8.896ZM55.4572 10.12C56.6092 10.12 57.3772 9.568 57.7852 9.136V10H59.2732V3.628H57.7852V8.056C57.2452 8.548 56.7052 8.884 56.0572 8.884C55.4092 8.884 55.1092 8.56 55.1092 7.852V3.628H53.6212V8.2C53.6212 9.46 54.3412 10.12 55.4572 10.12ZM60.9237 10H62.3997V5.968C62.8197 5.284 63.4197 4.84 64.3677 4.84C64.4517 4.84 64.6917 4.852 64.7637 4.864L64.8117 3.508H64.7157C63.5037 3.508 62.8197 4.036 62.4237 4.672H62.3997V3.628H60.9237V10ZM69.0607 10H70.5487V6.628H72.1207C73.9447 6.628 75.5887 5.992 75.5887 3.844C75.5887 1.792 74.0887 1.12 72.1687 1.12H69.0607V10ZM70.5487 5.32V2.488H72.1807C73.5127 2.488 74.1127 2.908 74.1127 3.892C74.1127 4.912 73.5127 5.32 72.1927 5.32H70.5487ZM77.8665 10.096C78.8145 10.096 79.5705 9.844 80.2185 9.184C80.2185 9.544 80.2785 9.736 80.3625 10H81.8505C81.7185 9.676 81.6705 9.208 81.6705 8.44V5.812C81.6705 4.324 81.0825 3.508 79.3785 3.508C78.0585 3.508 76.9905 4.036 76.3065 4.66L77.0265 5.584C77.5665 5.152 78.2865 4.72 79.1745 4.72C79.8825 4.72 80.2185 4.996 80.2185 5.632V5.824C77.2425 6.16 76.0665 7.084 76.0665 8.464C76.0665 9.52 76.8345 10.096 77.8665 10.096ZM78.4065 8.956C77.8665 8.956 77.5185 8.692 77.5185 8.188C77.5185 7.492 78.4545 7.06 80.2185 6.82V8.224C79.7505 8.668 79.1625 8.956 78.4065 8.956ZM85.5876 10.132C87.0396 10.132 88.2516 9.508 88.2516 8.164C88.2516 6.676 86.9196 6.4 85.8276 6.16C85.0716 5.992 84.4356 5.836 84.4356 5.32C84.4356 4.96 84.6996 4.672 85.5156 4.672C86.0916 4.672 86.8476 4.984 87.3156 5.368L88.0236 4.408C87.3636 3.856 86.6196 3.508 85.4076 3.508C84.0036 3.508 83.0436 4.264 83.0436 5.38C83.0436 6.856 84.3516 7.144 85.4436 7.396C86.2116 7.576 86.8596 7.732 86.8596 8.248C86.8596 8.776 86.3796 8.98 85.5876 8.98C84.7716 8.98 84.0636 8.632 83.5836 8.224L82.7796 9.124C83.3556 9.712 84.4116 10.132 85.5876 10.132ZM91.7517 10.132C93.2037 10.132 94.4157 9.508 94.4157 8.164C94.4157 6.676 93.0837 6.4 91.9917 6.16C91.2357 5.992 90.5997 5.836 90.5997 5.32C90.5997 4.96 90.8637 4.672 91.6797 4.672C92.2557 4.672 93.0117 4.984 93.4797 5.368L94.1877 4.408C93.5277 3.856 92.7837 3.508 91.5717 3.508C90.1677 3.508 89.2077 4.264 89.2077 5.38C89.2077 6.856 90.5157 7.144 91.6077 7.396C92.3757 7.576 93.0237 7.732 93.0237 8.248C93.0237 8.776 92.5437 8.98 91.7517 8.98C90.9357 8.98 90.2277 8.632 89.7477 8.224L88.9437 9.124C89.5197 9.712 90.5757 10.132 91.7517 10.132ZM96.8349 10H98.2029L99.3549 5.572H99.3789L100.531 10H101.911L103.807 3.628H102.463L101.743 6.316C101.539 7.012 101.431 7.468 101.239 8.296H101.215C101.035 7.48 100.927 7 100.723 6.292L100.015 3.628H98.8149L98.1429 6.244C97.9389 6.976 97.8309 7.432 97.6389 8.296H97.6149C97.4469 7.48 97.3269 6.988 97.1349 6.268L96.4389 3.628H94.9389L96.8349 10ZM107.347 10.132C108.895 10.132 110.455 9.148 110.455 6.82C110.455 4.468 108.895 3.508 107.347 3.508C105.787 3.508 104.239 4.468 104.239 6.82C104.239 9.148 105.799 10.132 107.347 10.132ZM107.347 8.896C106.219 8.896 105.727 8.032 105.727 6.82C105.727 5.536 106.279 4.768 107.347 4.768C108.463 4.768 108.967 5.632 108.967 6.82C108.967 8.128 108.415 8.896 107.347 8.896ZM111.748 10H113.224V5.968C113.644 5.284 114.244 4.84 115.192 4.84C115.276 4.84 115.516 4.852 115.588 4.864L115.636 3.508H115.54C114.328 3.508 113.644 4.036 113.248 4.672H113.224V3.628H111.748V10ZM118.561 10.096C119.509 10.096 120.121 9.676 120.589 9.136C120.589 9.46 120.649 9.82 120.733 10H122.257C122.113 9.676 122.065 9.208 122.065 8.44V1.12H120.589V4.312C120.121 3.784 119.449 3.508 118.765 3.508C117.133 3.508 116.041 4.624 116.041 6.832C116.041 9.04 117.109 10.096 118.561 10.096ZM119.041 8.884C118.093 8.884 117.517 8.212 117.517 6.868C117.517 5.452 117.973 4.732 119.089 4.732C119.617 4.732 120.193 5.008 120.589 5.524V8.08C120.241 8.5 119.653 8.884 119.041 8.884ZM125.44 7.372H126.652C126.652 6.124 126.676 5.836 127.732 5.26C128.548 4.816 129.196 4.276 129.196 3.136C129.196 1.864 128.26 0.952 126.472 0.952C124.996 0.952 124 1.612 123.304 2.452L124.252 3.304C124.696 2.788 125.452 2.272 126.34 2.272C127.216 2.272 127.72 2.644 127.72 3.244C127.72 3.952 127.36 4.204 126.58 4.66C125.836 5.08 125.404 5.656 125.404 6.532C125.404 6.82 125.404 7.084 125.44 7.372ZM125.224 10H126.868V8.5H125.224V10Z" fill="url(#paint0_linear_169_32121)"/>
<path d="M0.236328 11.596H129.76V11.836H0.236328V11.596Z" fill="url(#paint1_linear_169_32121)"/>
<defs>
<linearGradient id="paint0_linear_169_32121" x1="-1.84347e-07" y1="-4.22807" x2="76.2956" y2="72.6076" gradientUnits="userSpaceOnUse">
<stop stop-color="#53E88B"/>
<stop offset="1" stop-color="#15BE77"/>
</linearGradient>
<linearGradient id="paint1_linear_169_32121" x1="-1.84347e-07" y1="-4.22807" x2="76.2956" y2="72.6076" gradientUnits="userSpaceOnUse">
<stop stop-color="#53E88B"/>
<stop offset="1" stop-color="#15BE77"/>
</linearGradient>
</defs>
</svg>
