<svg width="216" height="19" viewBox="0 0 216 19" fill="none" xmlns="http://www.w3.org/2000/svg">
<path d="M0.924297 15H10.7043V12.36H4.1843V0.2H0.924297V15ZM16.891 15.22C19.471 15.22 22.331 13.82 22.331 9.68C22.331 5.5 19.471 4.12 16.891 4.12C14.291 4.12 11.431 5.5 11.431 9.68C11.431 13.82 14.311 15.22 16.891 15.22ZM16.891 12.96C15.251 12.96 14.651 11.48 14.651 9.7C14.651 7.78 15.351 6.48 16.891 6.48C18.491 6.48 19.111 7.92 19.111 9.7C19.111 11.64 18.411 12.96 16.891 12.96ZM28.3985 19C31.9385 19 34.5185 17.94 34.5185 15.74C34.5185 13.74 33.0385 12.86 29.3785 12.72L27.7785 12.62C26.9985 12.58 26.5785 12.5 26.5785 12.1C26.5785 11.9 26.7185 11.74 26.9385 11.56C27.4185 11.66 27.9785 11.74 28.5785 11.74C31.6385 11.74 33.2985 10.1 33.2985 7.94C33.2985 7.52 33.2185 7.16 33.0985 6.88C33.8585 6.68 34.5185 6.64 34.8985 6.64V4.18C34.0185 4.24 32.8785 4.66 32.1585 5.28C31.3585 4.56 30.1585 4.12 28.5785 4.12C25.4985 4.12 23.7785 5.8 23.7785 7.94C23.7785 9.22 24.3785 10.32 25.5385 11C24.6985 11.54 23.9985 12.3 23.9985 13.18C23.9985 13.74 24.2585 14.16 24.7185 14.46C23.7385 14.86 22.8785 15.56 22.8785 16.6C22.8785 18.1 24.2385 19 28.3985 19ZM28.6185 9.96C27.4585 9.96 26.7985 9.14 26.7985 8.06C26.7985 6.98 27.4385 6.16 28.6185 6.16C29.8185 6.16 30.4385 6.98 30.4385 8.06C30.4385 9.14 29.7985 9.96 28.6185 9.96ZM28.9185 17.38C26.7385 17.38 25.8785 16.94 25.8785 16.02C25.8785 15.66 26.0785 15.32 26.4785 15.06C26.6985 15.08 26.9385 15.1 27.1785 15.12L28.8585 15.2C31.3785 15.32 31.6985 15.62 31.6985 16.28C31.6985 16.98 30.5585 17.38 28.9185 17.38ZM36.6032 2.88H39.8432V0.3H36.6032V2.88ZM36.6232 15H39.8232V4.34H36.6232V15ZM42.4021 15H45.6221V7.84C46.3421 7.22 47.0821 6.78 47.9421 6.78C48.8421 6.78 49.2021 7.28 49.2021 8.24V15H52.4021V7.22C52.4021 5.02 51.1021 4.12 49.3021 4.12C47.4421 4.12 46.2621 5.18 45.6221 6.02V4.34H42.4021V15ZM63.131 15H66.391V2.92H70.811V0.2H58.731V2.92H63.131V15ZM74.8598 15.22C77.4398 15.22 80.2998 13.82 80.2998 9.68C80.2998 5.5 77.4398 4.12 74.8598 4.12C72.2598 4.12 69.3998 5.5 69.3998 9.68C69.3998 13.82 72.2798 15.22 74.8598 15.22ZM74.8598 12.96C73.2198 12.96 72.6198 11.48 72.6198 9.7C72.6198 7.78 73.3198 6.48 74.8598 6.48C76.4598 6.48 77.0798 7.92 77.0798 9.7C77.0798 11.64 76.3798 12.96 74.8598 12.96ZM90.7976 15H94.0376V8.72L99.1576 0.2H95.8376L92.4376 5.96L89.0576 0.2H85.6976L90.7976 8.72V15ZM102.653 15.22C105.233 15.22 108.093 13.82 108.093 9.68C108.093 5.5 105.233 4.12 102.653 4.12C100.053 4.12 97.1927 5.5 97.1927 9.68C97.1927 13.82 100.073 15.22 102.653 15.22ZM102.653 12.96C101.013 12.96 100.413 11.48 100.413 9.7C100.413 7.78 101.113 6.48 102.653 6.48C104.253 6.48 104.873 7.92 104.873 9.7C104.873 11.64 104.173 12.96 102.653 12.96ZM112.98 15.22C114.84 15.22 116.02 14.16 116.66 13.34V15H119.88V4.34H116.66V11.58C115.94 12.2 115.2 12.66 114.34 12.66C113.44 12.66 113.08 12.14 113.08 11.18V4.34H109.86V12.12C109.86 14.32 111.16 15.22 112.98 15.22ZM122.324 15H125.544V8.38C126.144 7.6 127.104 6.92 128.384 6.92C128.584 6.92 129.104 6.96 129.224 6.98L129.264 4.12H129.164C127.164 4.12 126.144 5.22 125.564 6.12H125.544V4.34H122.324V15ZM134.666 15H137.666L138.806 11.7H143.846L144.946 15H148.246L143.006 0.139999H139.906L134.666 15ZM139.606 9.34L141.346 4.3H141.386L143.086 9.34H139.606ZM154.073 15.22C156.893 15.22 158.213 13.64 158.893 11.98L156.233 11.06C155.773 12.5 154.993 12.96 154.133 12.96C152.653 12.96 152.053 11.6 152.053 9.7C152.053 7.58 152.873 6.48 154.173 6.48C155.113 6.48 155.733 6.92 156.153 8.28L158.853 7.38C158.233 5.66 157.113 4.12 154.213 4.12C151.853 4.12 148.833 5.42 148.833 9.68C148.833 13.82 151.573 15.22 154.073 15.22ZM165.05 15.22C167.87 15.22 169.19 13.64 169.87 11.98L167.21 11.06C166.75 12.5 165.97 12.96 165.11 12.96C163.63 12.96 163.03 11.6 163.03 9.7C163.03 7.58 163.85 6.48 165.15 6.48C166.09 6.48 166.71 6.92 167.13 8.28L169.83 7.38C169.21 5.66 168.09 4.12 165.19 4.12C162.83 4.12 159.81 5.42 159.81 9.68C159.81 13.82 162.55 15.22 165.05 15.22ZM176.246 15.22C178.826 15.22 181.686 13.82 181.686 9.68C181.686 5.5 178.826 4.12 176.246 4.12C173.646 4.12 170.786 5.5 170.786 9.68C170.786 13.82 173.666 15.22 176.246 15.22ZM176.246 12.96C174.606 12.96 174.006 11.48 174.006 9.7C174.006 7.78 174.706 6.48 176.246 6.48C177.846 6.48 178.466 7.92 178.466 9.7C178.466 11.64 177.766 12.96 176.246 12.96ZM186.574 15.22C188.434 15.22 189.614 14.16 190.254 13.34V15H193.474V4.34H190.254V11.58C189.534 12.2 188.794 12.66 187.934 12.66C187.034 12.66 186.674 12.14 186.674 11.18V4.34H183.454V12.12C183.454 14.32 184.754 15.22 186.574 15.22ZM195.937 15H199.157V7.84C199.877 7.22 200.617 6.78 201.477 6.78C202.377 6.78 202.737 7.28 202.737 8.24V15H205.937V7.22C205.937 5.02 204.637 4.12 202.837 4.12C200.977 4.12 199.797 5.18 199.157 6.02V4.34H195.937V15ZM212.761 15.14C213.461 15.14 214.641 15.04 214.881 14.98V12.68C214.661 12.76 214.181 12.8 213.821 12.8C212.661 12.8 212.341 12.44 212.341 11.3V6.68H215.081V4.34H212.341V0.68H209.141V4.34H207.361V6.68H209.141V12C209.141 14 209.601 15.14 212.761 15.14Z" fill="#09051C"/>
</svg>
