<svg width="102" height="11" viewBox="0 0 102 11" fill="none" xmlns="http://www.w3.org/2000/svg">
<path d="M4.88508 10.168C7.02108 10.168 9.06108 8.68 9.06108 5.56C9.06108 2.44 7.02108 0.952 4.88508 0.952C2.73708 0.952 0.697078 2.44 0.697078 5.56C0.697078 8.68 2.73708 10.168 4.88508 10.168ZM4.88508 8.596C3.50508 8.596 2.65308 7.42 2.65308 5.56C2.65308 3.7 3.50508 2.572 4.88508 2.572C6.25308 2.572 7.11708 3.7 7.11708 5.56C7.11708 7.42 6.25308 8.596 4.88508 8.596ZM10.1832 10H12.1152V6.028C12.4752 5.56 13.0512 5.152 13.8192 5.152C13.9392 5.152 14.2512 5.176 14.3232 5.188L14.3472 3.472H14.2872C13.0872 3.472 12.4752 4.132 12.1272 4.672H12.1152V3.604H10.1832V10ZM22.272 10.168C24.504 10.168 25.56 8.92 25.992 7.132L24.156 6.724C23.844 7.936 23.328 8.596 22.284 8.596C20.94 8.596 20.196 7.42 20.196 5.548C20.196 3.712 20.916 2.572 22.26 2.572C23.304 2.572 23.736 3.268 24.024 4.288L25.872 3.748C25.488 2.152 24.516 0.952 22.272 0.952C20.028 0.952 18.24 2.464 18.24 5.548C18.24 8.68 19.956 10.168 22.272 10.168ZM30.033 10.132C31.581 10.132 33.297 9.292 33.297 6.808C33.297 4.3 31.581 3.472 30.033 3.472C28.473 3.472 26.757 4.3 26.757 6.808C26.757 9.292 28.485 10.132 30.033 10.132ZM30.033 8.776C29.049 8.776 28.689 7.888 28.689 6.82C28.689 5.668 29.109 4.888 30.033 4.888C30.993 4.888 31.365 5.752 31.365 6.82C31.365 7.984 30.945 8.776 30.033 8.776ZM34.4295 10H36.3615V5.704C36.7935 5.332 37.2375 5.068 37.7535 5.068C38.2935 5.068 38.5095 5.368 38.5095 5.944V10H40.4295V5.332C40.4295 4.012 39.6495 3.472 38.5695 3.472C37.4535 3.472 36.7455 4.108 36.3615 4.612V3.604H34.4295V10ZM44.5235 10.084C44.9435 10.084 45.6515 10.024 45.7955 9.988V8.608C45.6635 8.656 45.3755 8.68 45.1595 8.68C44.4635 8.68 44.2715 8.464 44.2715 7.78V5.008H45.9155V3.604H44.2715V1.408H42.3515V3.604H41.2835V5.008H42.3515V8.2C42.3515 9.4 42.6275 10.084 44.5235 10.084ZM47.0166 2.728H48.9606V1.18H47.0166V2.728ZM47.0286 10H48.9486V3.604H47.0286V10ZM50.496 10H52.428V5.704C52.86 5.332 53.304 5.068 53.82 5.068C54.36 5.068 54.576 5.368 54.576 5.944V10H56.496V5.332C56.496 4.012 55.716 3.472 54.636 3.472C53.52 3.472 52.812 4.108 52.428 4.612V3.604H50.496V10ZM59.7139 10.132C60.8299 10.132 61.5379 9.496 61.9219 9.004V10H63.8539V3.604H61.9219V7.948C61.4899 8.32 61.0459 8.596 60.5299 8.596C59.9899 8.596 59.7739 8.284 59.7739 7.708V3.604H57.8419V8.272C57.8419 9.592 58.6219 10.132 59.7139 10.132ZM68.2359 10.132C69.3519 10.132 70.2759 9.808 71.0199 9.172L70.2759 8.02C69.8439 8.416 69.1359 8.788 68.3799 8.788C67.5759 8.788 66.9879 8.38 66.8919 7.324H71.1279V7.036C71.1279 4.132 69.5079 3.472 68.1879 3.472C66.8679 3.472 64.9719 4.324 64.9719 6.808C64.9719 9.28 66.5679 10.132 68.2359 10.132ZM66.9159 6.184C67.0599 5.248 67.5759 4.852 68.1759 4.852C68.8959 4.852 69.3039 5.284 69.3999 6.184H66.9159ZM76.989 10H78.681L80.181 3.82H80.205L81.609 10H83.277L85.593 1.12H83.793L82.893 5.224C82.725 5.944 82.617 6.304 82.497 7.108H82.473C82.353 6.316 82.221 5.908 82.053 5.2L81.093 1.12H79.293L78.393 5.176C78.237 5.812 78.093 6.376 77.985 7.108H77.961C77.841 6.352 77.697 5.812 77.529 5.164L76.593 1.12H74.625L76.989 10ZM86.5205 2.728H88.4645V1.18H86.5205V2.728ZM86.5325 10H88.4525V3.604H86.5325V10ZM92.6759 10.084C93.0959 10.084 93.8039 10.024 93.9479 9.988V8.608C93.8159 8.656 93.5279 8.68 93.3119 8.68C92.6159 8.68 92.4239 8.464 92.4239 7.78V5.008H94.0679V3.604H92.4239V1.408H90.5039V3.604H89.4359V5.008H90.5039V8.2C90.5039 9.4 90.7799 10.084 92.6759 10.084ZM95.109 10H97.041V5.704C97.473 5.332 97.917 5.068 98.445 5.068C98.973 5.068 99.189 5.368 99.189 5.944V10H101.121V5.332C101.121 4.012 100.341 3.472 99.249 3.472C98.133 3.472 97.425 4.108 97.041 4.612V1.12H95.109V10Z" fill="#09051C"/>
</svg>
