<svg width="217" height="34" viewBox="0 0 217 34" fill="none" xmlns="http://www.w3.org/2000/svg">
<path d="M0.425156 9H5.98116V8.22H1.27716V4.692H4.60116V3.924H1.27716V0.912H5.72916V0.12H0.425156V9ZM7.37016 9H8.19816V4.368C8.90616 3.684 9.59016 3.264 10.4062 3.264C11.2702 3.264 11.6662 3.696 11.6662 4.584V9H12.4942V4.428C12.4942 3.252 11.8582 2.556 10.6102 2.556C9.61416 2.556 8.81016 3.072 8.19816 3.672V2.676H7.37016V9ZM14.3908 1.212H15.2668V0.323999H14.3908V1.212ZM13.9108 11.412C14.8828 11.412 15.2428 10.92 15.2428 10.056V2.676H14.4148V10.044C14.4148 10.536 14.1748 10.752 13.7908 10.752C13.6588 10.752 13.5148 10.728 13.4188 10.704V11.364C13.5028 11.388 13.7788 11.412 13.9108 11.412ZM19.7336 9.132C21.2816 9.132 22.5896 7.944 22.5896 5.844C22.5896 3.732 21.2816 2.556 19.7336 2.556C18.1736 2.556 16.8656 3.732 16.8656 5.844C16.8656 7.944 18.1856 9.132 19.7336 9.132ZM19.7336 8.424C18.3776 8.424 17.6936 7.236 17.6936 5.832C17.6936 4.344 18.4496 3.264 19.7336 3.264C21.0656 3.264 21.7616 4.452 21.7616 5.832C21.7616 7.356 21.0056 8.424 19.7336 8.424ZM24.0627 11.424C25.2747 11.424 25.7547 10.86 26.1747 9.732L28.8987 2.676H28.0347L26.0787 8.016H26.0547L24.0867 2.676H23.1987L25.6467 9.036L25.3827 9.732C25.1187 10.404 24.7707 10.704 24.0867 10.704C23.6667 10.704 23.3907 10.656 23.2107 10.608L23.0187 11.292C23.2707 11.364 23.5827 11.424 24.0627 11.424ZM34.2859 9.108C35.2339 9.108 36.0499 8.76 36.7819 8.1C36.7819 8.46 36.8419 8.736 36.9259 9H37.7779C37.6459 8.676 37.5979 8.208 37.5979 7.44V4.572C37.5979 3.312 36.9859 2.556 35.5699 2.556C34.3219 2.556 33.4459 3.036 32.6899 3.732L33.1339 4.248C33.7939 3.672 34.5019 3.252 35.4979 3.252C36.3259 3.252 36.7819 3.672 36.7819 4.548V4.872C33.5659 5.364 32.4979 6.276 32.4979 7.524C32.4979 8.508 33.1579 9.108 34.2859 9.108ZM34.4659 8.424C33.7579 8.424 33.3139 8.076 33.3139 7.416C33.3139 6.588 34.0699 5.916 36.7819 5.46V7.428C36.1339 8.052 35.3539 8.424 34.4659 8.424ZM42.6194 9H43.4474V3.384H44.8394V2.676H43.4474V1.716C43.4474 1.032 43.8794 0.804 44.4914 0.804C44.6234 0.804 44.8154 0.816 44.9114 0.827999V0.132C44.8034 0.12 44.5874 0.107999 44.4314 0.107999C43.2314 0.107999 42.6194 0.659999 42.6194 1.728V2.676H41.5154V3.384H42.6194V9ZM47.282 9.108C48.23 9.108 49.046 8.76 49.778 8.1C49.778 8.46 49.838 8.736 49.922 9H50.774C50.642 8.676 50.594 8.208 50.594 7.44V4.572C50.594 3.312 49.982 2.556 48.566 2.556C47.318 2.556 46.442 3.036 45.686 3.732L46.13 4.248C46.79 3.672 47.498 3.252 48.494 3.252C49.322 3.252 49.778 3.672 49.778 4.548V4.872C46.562 5.364 45.494 6.276 45.494 7.524C45.494 8.508 46.154 9.108 47.282 9.108ZM47.462 8.424C46.754 8.424 46.31 8.076 46.31 7.416C46.31 6.588 47.066 5.916 49.778 5.46V7.428C49.13 8.052 48.35 8.424 47.462 8.424ZM54.4805 9.12C55.9085 9.12 56.9405 8.46 56.9405 7.308C56.9405 6.072 56.1245 5.688 54.5405 5.304C53.4365 5.04 53.0045 4.788 53.0045 4.176C53.0045 3.696 53.3885 3.24 54.3725 3.24C55.1405 3.24 55.7405 3.54 56.2205 4.02L56.6885 3.468C56.1245 2.916 55.4285 2.556 54.3485 2.556C52.9805 2.556 52.2005 3.312 52.2005 4.212C52.2005 5.316 52.9445 5.7 54.3965 6.06C55.6325 6.348 56.1365 6.624 56.1365 7.32C56.1365 8.028 55.5725 8.424 54.4925 8.424C53.6165 8.424 53.0045 8.064 52.5245 7.512L51.9965 7.992C52.4765 8.64 53.3525 9.12 54.4805 9.12ZM60.4936 9.084C60.7816 9.084 61.1176 9.048 61.3096 9.012V8.304C61.1296 8.364 60.8896 8.388 60.6496 8.388C59.8696 8.388 59.6536 8.028 59.6536 7.356V3.384H61.2976V2.676H59.6536V0.408H58.8256V2.676H57.7216V3.384H58.8256V7.524C58.8256 8.616 59.2816 9.084 60.4936 9.084ZM66.8874 9.108C67.8354 9.108 68.6514 8.76 69.3834 8.1C69.3834 8.46 69.4434 8.736 69.5274 9H70.3794C70.2474 8.676 70.1994 8.208 70.1994 7.44V4.572C70.1994 3.312 69.5874 2.556 68.1714 2.556C66.9234 2.556 66.0474 3.036 65.2914 3.732L65.7354 4.248C66.3954 3.672 67.1034 3.252 68.0994 3.252C68.9274 3.252 69.3834 3.672 69.3834 4.548V4.872C66.1674 5.364 65.0994 6.276 65.0994 7.524C65.0994 8.508 65.7594 9.108 66.8874 9.108ZM67.0674 8.424C66.3594 8.424 65.9154 8.076 65.9154 7.416C65.9154 6.588 66.6714 5.916 69.3834 5.46V7.428C68.7354 8.052 67.9554 8.424 67.0674 8.424ZM72.0459 9H72.8739V4.368C73.5819 3.684 74.2659 3.264 75.0819 3.264C75.9459 3.264 76.3419 3.696 76.3419 4.584V9H77.1699V4.428C77.1699 3.252 76.5339 2.556 75.2859 2.556C74.2899 2.556 73.4859 3.072 72.8739 3.672V2.676H72.0459V9ZM81.2746 9.108C82.2226 9.108 82.8706 8.628 83.3866 8.076C83.3866 8.412 83.4586 8.784 83.5306 9H84.4066C84.2626 8.676 84.2146 8.208 84.2146 7.44V0.12H83.3866V3.54C82.8946 2.988 82.1626 2.556 81.3466 2.556C79.8346 2.556 78.6706 3.636 78.6706 5.844C78.6706 8.052 79.8226 9.108 81.2746 9.108ZM81.4186 8.4C80.3626 8.4 79.4986 7.596 79.4986 5.856C79.4986 4.068 80.3026 3.252 81.4186 3.252C82.1506 3.252 82.7626 3.624 83.3866 4.296V7.368C82.7866 8.004 82.1986 8.4 81.4186 8.4ZM90.8789 9.12C92.3069 9.12 93.3389 8.46 93.3389 7.308C93.3389 6.072 92.5229 5.688 90.9389 5.304C89.8349 5.04 89.4029 4.788 89.4029 4.176C89.4029 3.696 89.7869 3.24 90.7709 3.24C91.5389 3.24 92.1389 3.54 92.6189 4.02L93.0869 3.468C92.5229 2.916 91.8269 2.556 90.7469 2.556C89.3789 2.556 88.5989 3.312 88.5989 4.212C88.5989 5.316 89.3429 5.7 90.7949 6.06C92.0309 6.348 92.5349 6.624 92.5349 7.32C92.5349 8.028 91.9709 8.424 90.8909 8.424C90.0149 8.424 89.4029 8.064 88.9229 7.512L88.3949 7.992C88.8749 8.64 89.7509 9.12 90.8789 9.12ZM94.9092 9H95.7372V4.368C96.4452 3.684 97.0932 3.264 97.8492 3.264C98.7492 3.264 99.0492 3.696 99.0492 4.584V9H99.8772V4.368C100.585 3.684 101.221 3.264 101.989 3.264C102.877 3.264 103.177 3.696 103.177 4.584V9H104.005V4.428C104.005 3.288 103.477 2.556 102.181 2.556C101.245 2.556 100.453 3.072 99.7932 3.696C99.6012 3.024 99.1212 2.556 98.0532 2.556C97.1052 2.556 96.3732 3.048 95.7372 3.672V2.676H94.9092V9ZM108.374 9.132C109.922 9.132 111.23 7.944 111.23 5.844C111.23 3.732 109.922 2.556 108.374 2.556C106.814 2.556 105.506 3.732 105.506 5.844C105.506 7.944 106.826 9.132 108.374 9.132ZM108.374 8.424C107.018 8.424 106.334 7.236 106.334 5.832C106.334 4.344 107.09 3.264 108.374 3.264C109.706 3.264 110.402 4.452 110.402 5.832C110.402 7.356 109.646 8.424 108.374 8.424ZM115.3 9.132C116.848 9.132 118.156 7.944 118.156 5.844C118.156 3.732 116.848 2.556 115.3 2.556C113.74 2.556 112.432 3.732 112.432 5.844C112.432 7.944 113.752 9.132 115.3 9.132ZM115.3 8.424C113.944 8.424 113.26 7.236 113.26 5.832C113.26 4.344 114.016 3.264 115.3 3.264C116.632 3.264 117.328 4.452 117.328 5.832C117.328 7.356 116.572 8.424 115.3 8.424ZM121.818 9.084C122.106 9.084 122.442 9.048 122.634 9.012V8.304C122.454 8.364 122.214 8.388 121.974 8.388C121.194 8.388 120.978 8.028 120.978 7.356V3.384H122.622V2.676H120.978V0.408H120.15V2.676H119.046V3.384H120.15V7.524C120.15 8.616 120.606 9.084 121.818 9.084ZM124.101 9H124.929V4.368C125.637 3.684 126.321 3.264 127.137 3.264C128.001 3.264 128.397 3.696 128.397 4.584V9H129.225V4.428C129.225 3.252 128.589 2.556 127.341 2.556C126.345 2.556 125.541 3.072 124.929 3.672V0.12H124.101V9ZM134.248 9H135.076V3.384H136.468V2.676H135.076V1.716C135.076 1.032 135.508 0.804 136.12 0.804C136.252 0.804 136.444 0.816 136.54 0.827999V0.132C136.432 0.12 136.216 0.107999 136.06 0.107999C134.86 0.107999 134.248 0.659999 134.248 1.728V2.676H133.144V3.384H134.248V9ZM140.015 9.132C141.563 9.132 142.871 7.944 142.871 5.844C142.871 3.732 141.563 2.556 140.015 2.556C138.455 2.556 137.147 3.732 137.147 5.844C137.147 7.944 138.467 9.132 140.015 9.132ZM140.015 8.424C138.659 8.424 137.975 7.236 137.975 5.832C137.975 4.344 138.731 3.264 140.015 3.264C141.347 3.264 142.043 4.452 142.043 5.832C142.043 7.356 141.287 8.424 140.015 8.424ZM146.941 9.132C148.489 9.132 149.797 7.944 149.797 5.844C149.797 3.732 148.489 2.556 146.941 2.556C145.381 2.556 144.073 3.732 144.073 5.844C144.073 7.944 145.393 9.132 146.941 9.132ZM146.941 8.424C145.585 8.424 144.901 7.236 144.901 5.832C144.901 4.344 145.657 3.264 146.941 3.264C148.273 3.264 148.969 4.452 148.969 5.832C148.969 7.356 148.213 8.424 146.941 8.424ZM153.614 9.108C154.562 9.108 155.21 8.628 155.726 8.076C155.726 8.412 155.798 8.784 155.87 9H156.746C156.602 8.676 156.554 8.208 156.554 7.44V0.12H155.726V3.54C155.234 2.988 154.502 2.556 153.686 2.556C152.174 2.556 151.01 3.636 151.01 5.844C151.01 8.052 152.162 9.108 153.614 9.108ZM153.758 8.4C152.702 8.4 151.838 7.596 151.838 5.856C151.838 4.068 152.642 3.252 153.758 3.252C154.49 3.252 155.102 3.624 155.726 4.296V7.368C155.126 8.004 154.538 8.4 153.758 8.4ZM163.435 9.108C164.383 9.108 165.031 8.628 165.547 8.076C165.547 8.412 165.619 8.784 165.691 9H166.567C166.423 8.676 166.375 8.208 166.375 7.44V0.12H165.547V3.54C165.055 2.988 164.323 2.556 163.507 2.556C161.995 2.556 160.831 3.636 160.831 5.844C160.831 8.052 161.983 9.108 163.435 9.108ZM163.579 8.4C162.523 8.4 161.659 7.596 161.659 5.856C161.659 4.068 162.463 3.252 163.579 3.252C164.311 3.252 164.923 3.624 165.547 4.296V7.368C164.947 8.004 164.359 8.4 163.579 8.4ZM170.704 9.132C171.904 9.132 172.684 8.58 173.236 7.692L172.72 7.284C172.24 8.028 171.7 8.436 170.752 8.436C169.66 8.436 168.772 7.56 168.76 6H173.284V5.844C173.284 3.684 172.18 2.556 170.704 2.556C169.372 2.556 167.932 3.588 167.932 5.832C167.932 7.992 169.228 9.132 170.704 9.132ZM168.772 5.34C168.928 3.912 169.78 3.252 170.692 3.252C171.82 3.252 172.396 4.14 172.48 5.34H168.772ZM174.915 9H175.743V0.12H174.915V9ZM177.774 1.212H178.65V0.323999H177.774V1.212ZM177.798 9H178.626V2.676H177.798V9ZM182.288 9.024H183.116L185.444 2.676H184.604L182.744 8.016H182.72L180.848 2.676H179.96L182.288 9.024ZM188.821 9.132C190.021 9.132 190.801 8.58 191.353 7.692L190.837 7.284C190.357 8.028 189.817 8.436 188.869 8.436C187.777 8.436 186.889 7.56 186.877 6H191.401V5.844C191.401 3.684 190.297 2.556 188.821 2.556C187.489 2.556 186.049 3.588 186.049 5.832C186.049 7.992 187.345 9.132 188.821 9.132ZM186.889 5.34C187.045 3.912 187.897 3.252 188.809 3.252C189.937 3.252 190.513 4.14 190.597 5.34H186.889ZM192.96 9H193.788V4.884C194.28 3.888 195.096 3.312 196.128 3.312C196.152 3.312 196.38 3.324 196.38 3.324L196.464 2.556H196.32C195.072 2.556 194.304 3.144 193.812 3.924H193.788V2.676H192.96V9ZM197.91 11.424C199.122 11.424 199.602 10.86 200.022 9.732L202.746 2.676H201.882L199.926 8.016H199.902L197.934 2.676H197.046L199.494 9.036L199.23 9.732C198.966 10.404 198.618 10.704 197.934 10.704C197.514 10.704 197.238 10.656 197.058 10.608L196.866 11.292C197.118 11.364 197.43 11.424 197.91 11.424ZM208.134 9.108C209.082 9.108 209.898 8.76 210.63 8.1C210.63 8.46 210.69 8.736 210.774 9H211.626C211.494 8.676 211.446 8.208 211.446 7.44V4.572C211.446 3.312 210.834 2.556 209.418 2.556C208.17 2.556 207.294 3.036 206.538 3.732L206.982 4.248C207.642 3.672 208.35 3.252 209.346 3.252C210.174 3.252 210.63 3.672 210.63 4.548V4.872C207.414 5.364 206.346 6.276 206.346 7.524C206.346 8.508 207.006 9.108 208.134 9.108ZM208.314 8.424C207.606 8.424 207.162 8.076 207.162 7.416C207.162 6.588 207.918 5.916 210.63 5.46V7.428C209.982 8.052 209.202 8.424 208.314 8.424ZM215.392 9.084C215.68 9.084 216.016 9.048 216.208 9.012V8.304C216.028 8.364 215.788 8.388 215.548 8.388C214.768 8.388 214.552 8.028 214.552 7.356V3.384H216.196V2.676H214.552V0.408H213.724V2.676H212.62V3.384H213.724V7.524C213.724 8.616 214.18 9.084 215.392 9.084ZM70.8088 33.424C72.0208 33.424 72.5008 32.86 72.9208 31.732L75.6448 24.676H74.7808L72.8248 30.016H72.8008L70.8328 24.676H69.9448L72.3928 31.036L72.1288 31.732C71.8648 32.404 71.5168 32.704 70.8328 32.704C70.4128 32.704 70.1368 32.656 69.9568 32.608L69.7648 33.292C70.0168 33.364 70.3288 33.424 70.8088 33.424ZM79.0774 31.132C80.6254 31.132 81.9334 29.944 81.9334 27.844C81.9334 25.732 80.6254 24.556 79.0774 24.556C77.5174 24.556 76.2094 25.732 76.2094 27.844C76.2094 29.944 77.5294 31.132 79.0774 31.132ZM79.0774 30.424C77.7214 30.424 77.0374 29.236 77.0374 27.832C77.0374 26.344 77.7934 25.264 79.0774 25.264C80.4094 25.264 81.1054 26.452 81.1054 27.832C81.1054 29.356 80.3494 30.424 79.0774 30.424ZM85.3192 31.132C86.3032 31.132 87.1072 30.604 87.7192 30.004V31H88.5592V24.676H87.7192V29.32C87.0112 29.992 86.3272 30.424 85.5232 30.424C84.6472 30.424 84.2632 29.992 84.2632 29.104V24.676H83.4352V29.248C83.4352 30.424 84.0592 31.132 85.3192 31.132ZM90.4678 31H91.2958V26.884C91.7878 25.888 92.6038 25.312 93.6358 25.312C93.6598 25.312 93.8878 25.324 93.8878 25.324L93.9718 24.556H93.8278C92.5798 24.556 91.8118 25.144 91.3198 25.924H91.2958V24.676H90.4678V31ZM100.165 31.108C101.113 31.108 101.761 30.628 102.277 30.076C102.277 30.412 102.349 30.784 102.421 31H103.297C103.153 30.676 103.105 30.208 103.105 29.44V22.12H102.277V25.54C101.785 24.988 101.053 24.556 100.237 24.556C98.7252 24.556 97.5612 25.636 97.5612 27.844C97.5612 30.052 98.7132 31.108 100.165 31.108ZM100.309 30.4C99.2532 30.4 98.3892 29.596 98.3892 27.856C98.3892 26.068 99.1932 25.252 100.309 25.252C101.041 25.252 101.653 25.624 102.277 26.296V29.368C101.677 30.004 101.089 30.4 100.309 30.4ZM107.531 31.132C109.079 31.132 110.387 29.944 110.387 27.844C110.387 25.732 109.079 24.556 107.531 24.556C105.971 24.556 104.663 25.732 104.663 27.844C104.663 29.944 105.983 31.132 107.531 31.132ZM107.531 30.424C106.175 30.424 105.491 29.236 105.491 27.832C105.491 26.344 106.247 25.264 107.531 25.264C108.863 25.264 109.559 26.452 109.559 27.832C109.559 29.356 108.803 30.424 107.531 30.424ZM114.456 31.132C116.004 31.132 117.312 29.944 117.312 27.844C117.312 25.732 116.004 24.556 114.456 24.556C112.896 24.556 111.588 25.732 111.588 27.844C111.588 29.944 112.908 31.132 114.456 31.132ZM114.456 30.424C113.1 30.424 112.416 29.236 112.416 27.832C112.416 26.344 113.172 25.264 114.456 25.264C115.788 25.264 116.484 26.452 116.484 27.832C116.484 29.356 115.728 30.424 114.456 30.424ZM118.874 31H119.702V26.884C120.194 25.888 121.01 25.312 122.042 25.312C122.066 25.312 122.294 25.324 122.294 25.324L122.378 24.556H122.234C120.986 24.556 120.218 25.144 119.726 25.924H119.702V24.676H118.874V31ZM125.473 31.12C126.901 31.12 127.933 30.46 127.933 29.308C127.933 28.072 127.117 27.688 125.533 27.304C124.429 27.04 123.997 26.788 123.997 26.176C123.997 25.696 124.381 25.24 125.365 25.24C126.133 25.24 126.733 25.54 127.213 26.02L127.681 25.468C127.117 24.916 126.421 24.556 125.341 24.556C123.973 24.556 123.193 25.312 123.193 26.212C123.193 27.316 123.937 27.7 125.389 28.06C126.625 28.348 127.129 28.624 127.129 29.32C127.129 30.028 126.565 30.424 125.485 30.424C124.609 30.424 123.997 30.064 123.517 29.512L122.989 29.992C123.469 30.64 124.345 31.12 125.473 31.12ZM131.486 31.084C131.774 31.084 132.11 31.048 132.302 31.012V30.304C132.122 30.364 131.882 30.388 131.642 30.388C130.862 30.388 130.646 30.028 130.646 29.356V25.384H132.29V24.676H130.646V22.408H129.818V24.676H128.714V25.384H129.818V29.524C129.818 30.616 130.274 31.084 131.486 31.084ZM136.075 31.132C137.275 31.132 138.055 30.58 138.607 29.692L138.091 29.284C137.611 30.028 137.071 30.436 136.123 30.436C135.031 30.436 134.143 29.56 134.131 28H138.655V27.844C138.655 25.684 137.551 24.556 136.075 24.556C134.743 24.556 133.303 25.588 133.303 27.832C133.303 29.992 134.599 31.132 136.075 31.132ZM134.143 27.34C134.299 25.912 135.151 25.252 136.063 25.252C137.191 25.252 137.767 26.14 137.851 27.34H134.143ZM140.214 33.4H141.042V30.136C141.606 30.712 142.266 31.108 143.082 31.108C144.594 31.108 145.758 30.04 145.758 27.832C145.758 25.624 144.606 24.556 143.154 24.556C142.206 24.556 141.546 25.036 141.042 25.576V24.676H140.214V33.4ZM143.01 30.412C142.278 30.412 141.666 30.04 141.042 29.38V26.308C141.642 25.672 142.23 25.264 143.01 25.264C144.066 25.264 144.93 26.092 144.93 27.844C144.93 29.632 144.126 30.412 143.01 30.412Z" fill="black"/>
</svg>
