<svg width="265" height="47" viewBox="0 0 265 47" fill="none" xmlns="http://www.w3.org/2000/svg">
<path d="M0.791141 17H4.37714V10.51H9.48114V7.672H4.37714V3.712H11.5491V0.72H0.791141V17ZM17.1299 17.242C19.9679 17.242 23.1139 15.702 23.1139 11.148C23.1139 6.55 19.9679 5.032 17.1299 5.032C14.2699 5.032 11.1239 6.55 11.1239 11.148C11.1239 15.702 14.2919 17.242 17.1299 17.242ZM17.1299 14.756C15.3259 14.756 14.6659 13.128 14.6659 11.17C14.6659 9.058 15.4359 7.628 17.1299 7.628C18.8899 7.628 19.5719 9.212 19.5719 11.17C19.5719 13.304 18.8019 14.756 17.1299 14.756ZM30.5362 17.242C33.3742 17.242 36.5202 15.702 36.5202 11.148C36.5202 6.55 33.3742 5.032 30.5362 5.032C27.6762 5.032 24.5302 6.55 24.5302 11.148C24.5302 15.702 27.6982 17.242 30.5362 17.242ZM30.5362 14.756C28.7322 14.756 28.0722 13.128 28.0722 11.17C28.0722 9.058 28.8422 7.628 30.5362 7.628C32.2962 7.628 32.9782 9.212 32.9782 11.17C32.9782 13.304 32.2082 14.756 30.5362 14.756ZM42.4464 17.176C44.1844 17.176 45.2844 16.296 46.0544 15.24C46.0544 15.834 46.1644 16.714 46.3184 17H49.9484C49.6844 16.406 49.5964 15.548 49.5964 14.14V0.72H46.0544V6.748C45.2184 5.604 44.0744 5.032 42.4904 5.032C39.8064 5.032 37.9364 7.188 37.9364 11.236C37.9364 15.284 39.7844 17.176 42.4464 17.176ZM43.7664 14.514C42.1824 14.514 41.4784 13.172 41.4784 11.214C41.4784 9.08 42.2484 7.958 43.7224 7.958C44.6464 7.958 45.2844 8.31 46.0544 9.036V13.37C45.4824 13.964 44.6684 14.514 43.7664 14.514ZM58.5411 17H61.8411V6.528H61.8851L68.9911 17H72.2911V0.72H68.9911V11.104H68.9471L62.1271 0.72H58.5411V17ZM75.4227 3.668H78.9867V0.83H75.4227V3.668ZM75.4447 17H78.9647V5.274H75.4447V17ZM81.8015 17H85.3435V9.124C86.1355 8.442 86.9495 7.958 87.8955 7.958C88.8855 7.958 89.2815 8.508 89.2815 9.564V17H92.8015V8.442C92.8015 6.022 91.3715 5.032 89.3915 5.032C87.3455 5.032 86.0475 6.198 85.3435 7.122V5.274H81.8015V17ZM95.4891 3.668H99.0531V0.83H95.4891V3.668ZM95.2251 21.466C98.5911 21.466 99.0311 19.75 99.0311 18.122V5.274H95.5111V17.44C95.5111 18.584 95.0491 19.046 94.0811 19.046C93.7511 19.046 93.2671 18.98 93.0691 18.914V21.312C93.2671 21.356 94.5431 21.466 95.2251 21.466ZM104.42 17.176C106.158 17.176 107.434 16.494 108.512 15.284C108.512 15.944 108.622 16.516 108.776 17H112.296C112.054 16.406 111.966 15.548 111.966 14.14V9.63C111.966 6.616 110.646 5.032 107.434 5.032C104.508 5.032 102.748 6.066 101.582 7.122L103.078 9.146C104.156 8.31 105.432 7.694 106.928 7.694C108.072 7.694 108.512 8.244 108.512 9.102V9.388C103.364 9.806 101.076 11.302 101.076 14.008C101.076 16.01 102.616 17.176 104.42 17.176ZM105.828 14.514C105.058 14.514 104.53 14.14 104.53 13.392C104.53 12.314 105.718 11.61 108.512 11.324V13.502C107.918 14.096 107.06 14.514 105.828 14.514ZM120.561 3.668H124.125V0.83H120.561V3.668ZM120.583 17H124.103V5.274H120.583V17ZM131.538 17.242C134.244 17.242 136.708 16.12 136.708 13.282C136.708 10.62 134.266 10.092 131.956 9.696C130.504 9.432 129.866 9.146 129.866 8.442C129.866 7.804 130.438 7.408 131.45 7.408C132.55 7.408 133.716 7.87 134.904 8.684L136.29 6.682C134.992 5.648 133.54 5.032 131.142 5.032C128.524 5.032 126.588 6.396 126.588 8.75C126.588 11.5 128.964 12.028 131.186 12.424C132.792 12.71 133.408 13.018 133.408 13.832C133.408 14.602 132.638 14.976 131.538 14.976C130.108 14.976 128.524 14.382 127.468 13.458L126.06 15.438C127.248 16.45 128.964 17.242 131.538 17.242ZM147.366 17H150.468L153.218 5.67H153.262L155.836 17H158.894L163.14 0.72H159.84L158.19 8.244C157.882 9.564 157.684 10.224 157.464 11.698H157.42C157.2 10.246 156.958 9.498 156.65 8.2L154.89 0.72H151.59L149.94 8.156C149.654 9.322 149.39 10.356 149.192 11.698H149.148C148.928 10.312 148.664 9.322 148.356 8.134L146.64 0.72H143.032L147.366 17ZM164.946 17H168.488V9.124C169.28 8.442 170.094 7.958 171.062 7.958C172.03 7.958 172.426 8.508 172.426 9.564V17H175.968V8.442C175.968 6.022 174.538 5.032 172.536 5.032C170.49 5.032 169.192 6.198 168.488 7.122V0.72H164.946V17ZM183.891 17.242C185.937 17.242 187.631 16.648 188.995 15.482L187.631 13.37C186.839 14.096 185.541 14.778 184.155 14.778C182.681 14.778 181.603 14.03 181.427 12.094H189.193V11.566C189.193 6.242 186.223 5.032 183.803 5.032C181.383 5.032 177.907 6.594 177.907 11.148C177.907 15.68 180.833 17.242 183.891 17.242ZM181.471 10.004C181.735 8.288 182.681 7.562 183.781 7.562C185.101 7.562 185.849 8.354 186.025 10.004H181.471ZM191.242 17H194.784V9.718C195.444 8.86 196.5 8.112 197.908 8.112C198.128 8.112 198.7 8.156 198.832 8.178L198.876 5.032H198.766C196.566 5.032 195.444 6.242 194.806 7.232H194.784V5.274H191.242V17ZM205.397 17.242C207.443 17.242 209.137 16.648 210.501 15.482L209.137 13.37C208.345 14.096 207.047 14.778 205.661 14.778C204.187 14.778 203.109 14.03 202.933 12.094H210.699V11.566C210.699 6.242 207.729 5.032 205.309 5.032C202.889 5.032 199.413 6.594 199.413 11.148C199.413 15.68 202.339 17.242 205.397 17.242ZM202.977 10.004C203.241 8.288 204.187 7.562 205.287 7.562C206.607 7.562 207.355 8.354 207.531 10.004H202.977ZM222.242 17H225.806V10.092L231.438 0.72H227.786L224.046 7.056L220.328 0.72H216.632L222.242 10.092V17ZM235.282 17.242C238.12 17.242 241.266 15.702 241.266 11.148C241.266 6.55 238.12 5.032 235.282 5.032C232.422 5.032 229.276 6.55 229.276 11.148C229.276 15.702 232.444 17.242 235.282 17.242ZM235.282 14.756C233.478 14.756 232.818 13.128 232.818 11.17C232.818 9.058 233.588 7.628 235.282 7.628C237.042 7.628 237.724 9.212 237.724 11.17C237.724 13.304 236.954 14.756 235.282 14.756ZM246.643 17.242C248.689 17.242 249.987 16.076 250.691 15.174V17H254.233V5.274H250.691V13.238C249.899 13.92 249.085 14.426 248.139 14.426C247.149 14.426 246.753 13.854 246.753 12.798V5.274H243.211V13.832C243.211 16.252 244.641 17.242 246.643 17.242ZM256.92 17H260.462V9.718C261.122 8.86 262.178 8.112 263.586 8.112C263.806 8.112 264.378 8.156 264.51 8.178L264.554 5.032H264.444C262.244 5.032 261.122 6.242 260.484 7.232H260.462V5.274H256.92V17ZM35.8585 46.308C39.9505 46.308 41.8865 44.02 42.6785 40.742L39.3125 39.994C38.7405 42.216 37.7945 43.426 35.8805 43.426C33.4165 43.426 32.0525 41.27 32.0525 37.838C32.0525 34.472 33.3725 32.382 35.8365 32.382C37.7505 32.382 38.5425 33.658 39.0705 35.528L42.4585 34.538C41.7545 31.612 39.9725 29.412 35.8585 29.412C31.7445 29.412 28.4665 32.184 28.4665 37.838C28.4665 43.58 31.6125 46.308 35.8585 46.308ZM50.087 46.242C52.925 46.242 56.071 44.702 56.071 40.148C56.071 35.55 52.925 34.032 50.087 34.032C47.227 34.032 44.081 35.55 44.081 40.148C44.081 44.702 47.249 46.242 50.087 46.242ZM50.087 43.756C48.283 43.756 47.623 42.128 47.623 40.17C47.623 38.058 48.393 36.628 50.087 36.628C51.847 36.628 52.529 38.212 52.529 40.17C52.529 42.304 51.759 43.756 50.087 43.756ZM58.1252 46H61.6672V38.124C62.4592 37.442 63.1632 36.958 64.0432 36.958C65.0772 36.958 65.3192 37.508 65.3192 38.564V46H68.8612V38.124C69.6312 37.442 70.3352 36.958 71.2152 36.958C72.2492 36.958 72.4912 37.508 72.4912 38.564V46H76.0332V37.618C76.0332 35.528 74.9772 34.032 72.6012 34.032C70.7532 34.032 69.4332 35.22 68.7292 36.122C68.3992 34.846 67.4752 34.032 65.5172 34.032C63.6692 34.032 62.3712 35.198 61.6672 36.122V34.274H58.1252V46ZM79.6773 46H83.1973V36.848H85.7493V34.274H83.1973V33.57C83.1973 32.316 83.9893 32.162 84.8473 32.162C85.1993 32.162 85.7053 32.206 85.8813 32.25V29.786C85.6833 29.742 84.4293 29.632 83.7473 29.632C80.2713 29.632 79.6773 31.502 79.6773 33.46V34.274H77.7193V36.848H79.6773V46ZM92.4756 46.242C95.3136 46.242 98.4596 44.702 98.4596 40.148C98.4596 35.55 95.3136 34.032 92.4756 34.032C89.6156 34.032 86.4696 35.55 86.4696 40.148C86.4696 44.702 89.6376 46.242 92.4756 46.242ZM92.4756 43.756C90.6716 43.756 90.0116 42.128 90.0116 40.17C90.0116 38.058 90.7816 36.628 92.4756 36.628C94.2356 36.628 94.9176 38.212 94.9176 40.17C94.9176 42.304 94.1476 43.756 92.4756 43.756ZM100.514 46H104.056V38.718C104.716 37.86 105.772 37.112 107.18 37.112C107.4 37.112 107.972 37.156 108.104 37.178L108.148 34.032H108.038C105.838 34.032 104.716 35.242 104.078 36.232H104.056V34.274H100.514V46ZM114.745 46.154C115.515 46.154 116.813 46.044 117.077 45.978V43.448C116.835 43.536 116.307 43.58 115.911 43.58C114.635 43.58 114.283 43.184 114.283 41.93V36.848H117.297V34.274H114.283V30.248H110.763V34.274H108.805V36.848H110.763V42.7C110.763 44.9 111.269 46.154 114.745 46.154ZM125.443 46H129.029V39.51H134.133V36.672H129.029V32.712H136.201V29.72H125.443V46ZM141.782 46.242C144.62 46.242 147.766 44.702 147.766 40.148C147.766 35.55 144.62 34.032 141.782 34.032C138.922 34.032 135.776 35.55 135.776 40.148C135.776 44.702 138.944 46.242 141.782 46.242ZM141.782 43.756C139.978 43.756 139.318 42.128 139.318 40.17C139.318 38.058 140.088 36.628 141.782 36.628C143.542 36.628 144.224 38.212 144.224 40.17C144.224 42.304 143.454 43.756 141.782 43.756ZM155.189 46.242C158.027 46.242 161.173 44.702 161.173 40.148C161.173 35.55 158.027 34.032 155.189 34.032C152.329 34.032 149.183 35.55 149.183 40.148C149.183 44.702 152.351 46.242 155.189 46.242ZM155.189 43.756C153.385 43.756 152.725 42.128 152.725 40.17C152.725 38.058 153.495 36.628 155.189 36.628C156.949 36.628 157.631 38.212 157.631 40.17C157.631 42.304 156.861 43.756 155.189 43.756ZM167.099 46.176C168.837 46.176 169.937 45.296 170.707 44.24C170.707 44.834 170.817 45.714 170.971 46H174.601C174.337 45.406 174.249 44.548 174.249 43.14V29.72H170.707V35.748C169.871 34.604 168.727 34.032 167.143 34.032C164.459 34.032 162.589 36.188 162.589 40.236C162.589 44.284 164.437 46.176 167.099 46.176ZM168.419 43.514C166.835 43.514 166.131 42.172 166.131 40.214C166.131 38.08 166.901 36.958 168.375 36.958C169.299 36.958 169.937 37.31 170.707 38.036V42.37C170.135 42.964 169.321 43.514 168.419 43.514ZM183.193 46H193.951V43.096H186.779V29.72H183.193V46ZM195.864 32.668H199.428V29.83H195.864V32.668ZM195.886 46H199.406V34.274H195.886V46ZM205.037 46.022H208.601L212.781 34.274H209.459L206.995 42.084H206.951L204.487 34.274H200.835L205.037 46.022ZM218.889 46.242C220.935 46.242 222.629 45.648 223.993 44.482L222.629 42.37C221.837 43.096 220.539 43.778 219.153 43.778C217.679 43.778 216.601 43.03 216.425 41.094H224.191V40.566C224.191 35.242 221.221 34.032 218.801 34.032C216.381 34.032 212.905 35.594 212.905 40.148C212.905 44.68 215.831 46.242 218.889 46.242ZM216.469 39.004C216.733 37.288 217.679 36.562 218.779 36.562C220.099 36.562 220.847 37.354 221.023 39.004H216.469ZM230.646 46.242C233.352 46.242 235.816 45.12 235.816 42.282C235.816 39.62 233.374 39.092 231.064 38.696C229.612 38.432 228.974 38.146 228.974 37.442C228.974 36.804 229.546 36.408 230.558 36.408C231.658 36.408 232.824 36.87 234.012 37.684L235.398 35.682C234.1 34.648 232.648 34.032 230.25 34.032C227.632 34.032 225.696 35.396 225.696 37.75C225.696 40.5 228.072 41.028 230.294 41.424C231.9 41.71 232.516 42.018 232.516 42.832C232.516 43.602 231.746 43.976 230.646 43.976C229.216 43.976 227.632 43.382 226.576 42.458L225.168 44.438C226.356 45.45 228.072 46.242 230.646 46.242Z" fill="#09051C"/>
</svg>
